<mxfile host="Electron" modified="2024-02-25T09:00:01.014Z" agent="Mozilla/5.0 (Macintosh; Intel Mac OS X 10_15_7) AppleWebKit/537.36 (KHTML, like Gecko) draw.io/23.1.5 Chrome/120.0.6099.109 Electron/28.1.0 Safari/537.36" etag="zRjHMkoIqyQuTwRZbKXd" version="23.1.5" type="device">
  <diagram name="페이지-1" id="QjFLisXFMbcNtNYsqDMp">
    <mxGraphModel dx="1114" dy="894" grid="1" gridSize="10" guides="1" tooltips="1" connect="1" arrows="1" fold="1" page="1" pageScale="1" pageWidth="827" pageHeight="1169" math="0" shadow="0">
      <root>
        <mxCell id="0" />
        <mxCell id="1" parent="0" />
        <mxCell id="PQ6gSPCWZj-NhVunV_36-1" style="edgeStyle=orthogonalEdgeStyle;rounded=0;orthogonalLoop=1;jettySize=auto;html=1;entryX=0.25;entryY=0;entryDx=0;entryDy=0;endArrow=block;endFill=1;" edge="1" parent="1" source="PQ6gSPCWZj-NhVunV_36-2" target="PQ6gSPCWZj-NhVunV_36-5">
          <mxGeometry relative="1" as="geometry" />
        </mxCell>
        <mxCell id="PQ6gSPCWZj-NhVunV_36-2" value="" style="sketch=0;outlineConnect=0;fontColor=#232F3E;gradientColor=none;fillColor=#232F3D;strokeColor=none;dashed=0;verticalLabelPosition=bottom;verticalAlign=top;align=center;html=1;fontSize=12;fontStyle=0;aspect=fixed;pointerEvents=1;shape=mxgraph.aws4.user;" vertex="1" parent="1">
          <mxGeometry x="276" y="50" width="30" height="30" as="geometry" />
        </mxCell>
        <mxCell id="PQ6gSPCWZj-NhVunV_36-3" style="edgeStyle=orthogonalEdgeStyle;rounded=0;orthogonalLoop=1;jettySize=auto;html=1;exitX=0.25;exitY=1;exitDx=0;exitDy=0;entryX=0.25;entryY=0;entryDx=0;entryDy=0;endArrow=block;endFill=1;" edge="1" parent="1" source="PQ6gSPCWZj-NhVunV_36-5" target="PQ6gSPCWZj-NhVunV_36-8">
          <mxGeometry relative="1" as="geometry" />
        </mxCell>
        <mxCell id="PQ6gSPCWZj-NhVunV_36-5" value="인증 필터&lt;br&gt;&lt;br&gt;(&lt;b&gt;AuthenticationFilter&lt;/b&gt;)" style="rounded=0;whiteSpace=wrap;html=1;" vertex="1" parent="1">
          <mxGeometry x="255" y="140" width="145" height="60" as="geometry" />
        </mxCell>
        <mxCell id="PQ6gSPCWZj-NhVunV_36-6" style="edgeStyle=orthogonalEdgeStyle;rounded=0;orthogonalLoop=1;jettySize=auto;html=1;exitX=0.25;exitY=1;exitDx=0;exitDy=0;entryX=0.25;entryY=0;entryDx=0;entryDy=0;endArrow=block;endFill=1;" edge="1" parent="1" source="PQ6gSPCWZj-NhVunV_36-8" target="PQ6gSPCWZj-NhVunV_36-12">
          <mxGeometry relative="1" as="geometry" />
        </mxCell>
        <mxCell id="PQ6gSPCWZj-NhVunV_36-7" style="edgeStyle=orthogonalEdgeStyle;rounded=0;orthogonalLoop=1;jettySize=auto;html=1;exitX=0.75;exitY=0;exitDx=0;exitDy=0;entryX=0.75;entryY=1;entryDx=0;entryDy=0;endArrow=block;endFill=1;" edge="1" parent="1" source="PQ6gSPCWZj-NhVunV_36-8" target="PQ6gSPCWZj-NhVunV_36-5">
          <mxGeometry relative="1" as="geometry" />
        </mxCell>
        <mxCell id="PQ6gSPCWZj-NhVunV_36-8" value="인증 관리자&lt;br&gt;&lt;br&gt;(&lt;b&gt;AuthenticationManager&lt;/b&gt;)" style="rounded=0;whiteSpace=wrap;html=1;" vertex="1" parent="1">
          <mxGeometry x="255" y="260" width="145" height="60" as="geometry" />
        </mxCell>
        <mxCell id="PQ6gSPCWZj-NhVunV_36-9" style="edgeStyle=orthogonalEdgeStyle;rounded=0;orthogonalLoop=1;jettySize=auto;html=1;exitX=0.75;exitY=0;exitDx=0;exitDy=0;entryX=0.75;entryY=1;entryDx=0;entryDy=0;endArrow=block;endFill=1;" edge="1" parent="1" source="PQ6gSPCWZj-NhVunV_36-12" target="PQ6gSPCWZj-NhVunV_36-8">
          <mxGeometry relative="1" as="geometry" />
        </mxCell>
        <mxCell id="PQ6gSPCWZj-NhVunV_36-10" style="rounded=0;orthogonalLoop=1;jettySize=auto;html=1;exitX=1;exitY=0.5;exitDx=0;exitDy=0;entryX=0;entryY=0.5;entryDx=0;entryDy=0;endArrow=block;endFill=1;" edge="1" parent="1" source="PQ6gSPCWZj-NhVunV_36-12" target="PQ6gSPCWZj-NhVunV_36-14">
          <mxGeometry relative="1" as="geometry" />
        </mxCell>
        <mxCell id="PQ6gSPCWZj-NhVunV_36-11" style="rounded=0;orthogonalLoop=1;jettySize=auto;html=1;entryX=0;entryY=0.5;entryDx=0;entryDy=0;exitX=1;exitY=0.5;exitDx=0;exitDy=0;endArrow=block;endFill=1;" edge="1" parent="1" source="PQ6gSPCWZj-NhVunV_36-12" target="PQ6gSPCWZj-NhVunV_36-15">
          <mxGeometry relative="1" as="geometry" />
        </mxCell>
        <mxCell id="PQ6gSPCWZj-NhVunV_36-12" value="인증 공급자&lt;br&gt;&lt;br&gt;(&lt;b&gt;AuthenticationProvider&lt;/b&gt;)" style="rounded=0;whiteSpace=wrap;html=1;" vertex="1" parent="1">
          <mxGeometry x="255" y="380" width="145" height="60" as="geometry" />
        </mxCell>
        <mxCell id="PQ6gSPCWZj-NhVunV_36-14" value="사용자 세부 정보 서비스&lt;br&gt;&lt;br&gt;(&lt;b&gt;UserDetailsService&lt;/b&gt;)" style="rounded=0;whiteSpace=wrap;html=1;" vertex="1" parent="1">
          <mxGeometry x="480" y="330" width="140" height="60" as="geometry" />
        </mxCell>
        <mxCell id="PQ6gSPCWZj-NhVunV_36-15" value="암호 인코더&lt;br&gt;&lt;br&gt;(&lt;b&gt;PasswordEncoder&lt;/b&gt;)" style="rounded=0;whiteSpace=wrap;html=1;" vertex="1" parent="1">
          <mxGeometry x="480" y="430" width="140" height="60" as="geometry" />
        </mxCell>
        <mxCell id="PQ6gSPCWZj-NhVunV_36-16" value="④ 인증 공급자는 사용자 세부 정보 서비스로 사용자를 찾고, 암호 인코더로 암호를 검증함" style="text;html=1;strokeColor=#82b366;fillColor=#d5e8d4;align=left;verticalAlign=middle;whiteSpace=wrap;rounded=1;sketch=1;curveFitting=1;jiggle=2;spacingLeft=3;" vertex="1" parent="1">
          <mxGeometry x="630" y="380" width="217.5" height="60" as="geometry" />
        </mxCell>
        <mxCell id="PQ6gSPCWZj-NhVunV_36-17" style="edgeStyle=orthogonalEdgeStyle;rounded=0;orthogonalLoop=1;jettySize=auto;html=1;exitX=0.25;exitY=1;exitDx=0;exitDy=0;curved=1;fillColor=#d5e8d4;strokeColor=#82b366;" edge="1" parent="1">
          <mxGeometry relative="1" as="geometry">
            <mxPoint x="365" y="360" as="targetPoint" />
            <mxPoint x="461.875" y="305" as="sourcePoint" />
            <Array as="points">
              <mxPoint x="462" y="340" />
              <mxPoint x="366" y="340" />
            </Array>
          </mxGeometry>
        </mxCell>
        <mxCell id="PQ6gSPCWZj-NhVunV_36-18" value="⑤ 인증 결과가 필터로 반환됨" style="text;html=1;strokeColor=#82b366;fillColor=#d5e8d4;align=left;verticalAlign=middle;whiteSpace=wrap;rounded=1;sketch=1;curveFitting=1;jiggle=2;spacingLeft=3;" vertex="1" parent="1">
          <mxGeometry x="420" y="275" width="147.5" height="30" as="geometry" />
        </mxCell>
        <mxCell id="PQ6gSPCWZj-NhVunV_36-20" value="인증된 엔티티에 관한 세부 정보가 보안 컨텍스트가 아닌 TokenStore 의 토큰으로 관리됨" style="text;html=1;strokeColor=#b85450;fillColor=#f8cecc;align=left;verticalAlign=middle;whiteSpace=wrap;rounded=1;spacingLeft=3;sketch=1;curveFitting=1;jiggle=2;" vertex="1" parent="1">
          <mxGeometry x="433.5" y="80" width="276.5" height="50" as="geometry" />
        </mxCell>
        <mxCell id="PQ6gSPCWZj-NhVunV_36-21" style="edgeStyle=orthogonalEdgeStyle;rounded=0;orthogonalLoop=1;jettySize=auto;html=1;endArrow=block;endFill=1;curved=1;fillColor=#d5e8d4;strokeColor=#82b366;" edge="1" parent="1" source="PQ6gSPCWZj-NhVunV_36-22">
          <mxGeometry relative="1" as="geometry">
            <mxPoint x="290" y="120" as="targetPoint" />
          </mxGeometry>
        </mxCell>
        <mxCell id="PQ6gSPCWZj-NhVunV_36-22" value="① 인증 필터가 요청을 가로챔" style="text;html=1;strokeColor=#82b366;fillColor=#d5e8d4;align=center;verticalAlign=middle;whiteSpace=wrap;rounded=1;sketch=1;curveFitting=1;jiggle=2;" vertex="1" parent="1">
          <mxGeometry x="60" y="90" width="150" height="30" as="geometry" />
        </mxCell>
        <mxCell id="PQ6gSPCWZj-NhVunV_36-23" style="edgeStyle=orthogonalEdgeStyle;rounded=0;orthogonalLoop=1;jettySize=auto;html=1;fillColor=#d5e8d4;strokeColor=#82b366;curved=1;endArrow=block;endFill=1;" edge="1" parent="1" source="PQ6gSPCWZj-NhVunV_36-24">
          <mxGeometry relative="1" as="geometry">
            <mxPoint x="290" y="220" as="targetPoint" />
          </mxGeometry>
        </mxCell>
        <mxCell id="PQ6gSPCWZj-NhVunV_36-24" value="② 인증 관리자에게 &lt;br&gt;인증 책임이 위임됨" style="text;html=1;strokeColor=#82b366;fillColor=#d5e8d4;align=left;verticalAlign=middle;whiteSpace=wrap;rounded=1;sketch=1;curveFitting=1;jiggle=2;spacingLeft=3;" vertex="1" parent="1">
          <mxGeometry x="70" y="215" width="104" height="45" as="geometry" />
        </mxCell>
        <mxCell id="PQ6gSPCWZj-NhVunV_36-25" style="edgeStyle=orthogonalEdgeStyle;rounded=0;orthogonalLoop=1;jettySize=auto;html=1;curved=1;fillColor=#d5e8d4;strokeColor=#82b366;endArrow=block;endFill=1;" edge="1" parent="1" source="PQ6gSPCWZj-NhVunV_36-26">
          <mxGeometry relative="1" as="geometry">
            <mxPoint x="290" y="360" as="targetPoint" />
          </mxGeometry>
        </mxCell>
        <mxCell id="PQ6gSPCWZj-NhVunV_36-26" value="③ 인증 관리자는 인증 논리를 구현하는 인증 공급자를 이용함" style="text;html=1;strokeColor=#82b366;fillColor=#d5e8d4;align=left;verticalAlign=middle;whiteSpace=wrap;rounded=1;sketch=1;curveFitting=1;jiggle=2;spacingLeft=3;" vertex="1" parent="1">
          <mxGeometry x="10" y="320" width="186" height="50" as="geometry" />
        </mxCell>
      </root>
    </mxGraphModel>
  </diagram>
</mxfile>
